<svg width="22" height="38" viewBox="0 0 22 38" fill="none" xmlns="http://www.w3.org/2000/svg">
<path d="M20.5289 36.3145C20.8342 36.0178 21.0779 35.6639 21.2462 35.2729C21.4145 34.882 21.504 34.4616 21.5096 34.036C21.5153 33.6104 21.4369 33.1879 21.2791 32.7926C21.1212 32.3973 20.8869 32.037 20.5896 31.7324L8.14779 18.9564L20.9237 6.51461C21.5394 5.91503 21.8917 5.09544 21.9031 4.23613C21.9145 3.37682 21.584 2.54818 20.9844 1.93251C20.3849 1.31683 19.5653 0.96456 18.706 0.953175C17.8467 0.94179 17.018 1.27223 16.4023 1.8718L1.28853 16.5904C0.983288 16.887 0.739548 17.241 0.571264 17.6319C0.402981 18.0229 0.313459 18.4432 0.307821 18.8688C0.302182 19.2944 0.380536 19.717 0.538403 20.1123C0.69627 20.5076 0.930548 20.8678 1.22782 21.1725L15.9464 36.2863C17.1649 37.5375 19.2447 37.5651 20.5289 36.3145Z" fill="white"/>
</svg>
